<svg width="27" height="25" viewBox="0 0 27 25" fill="none" xmlns="http://www.w3.org/2000/svg">
<path d="M1 7L11 1L15 3.5C13.4 9.9 18.3333 12.5 21 13V18L11 24L1 18V7Z" fill="#050505"/>
<path d="M1 7L11 1L15 3.5C13.4 9.9 18.3333 12.5 21 13V18L11 24L1 18V7Z" stroke="black"/>
<path d="M1 7L11 1L15 3.5C13.4 9.9 18.3333 12.5 21 13V18L11 24L1 18V7Z" stroke="black" stroke-opacity="0.2"/>
<path d="M1 7L11 1L15 3.5C13.4 9.9 18.3333 12.5 21 13V18L11 24L1 18V7Z" stroke="black" stroke-opacity="0.2"/>
<path d="M1 7L11 1L15 3.5C13.4 9.9 18.3333 12.5 21 13V18L11 24L1 18V7Z" stroke="black" stroke-opacity="0.2"/>
<path d="M1 7L11 1L15 3.5C13.4 9.9 18.3333 12.5 21 13V18L11 24L1 18V7Z" stroke="black" stroke-opacity="0.2"/>
<circle cx="22" cy="6" r="5" fill="#79BA52"/>
</svg>
