<?xml version="1.0" encoding="utf-8"?>
<!-- Generator: Adobe Illustrator 24.1.1, SVG Export Plug-In . SVG Version: 6.00 Build 0)  -->
<svg version="1.1" id="Layer_1" xmlns="http://www.w3.org/2000/svg" xmlns:xlink="http://www.w3.org/1999/xlink" x="0px" y="0px"
	 viewBox="0 0 512 512" style="enable-background:new 0 0 512 512;" xml:space="preserve">
<g>
	<path d="M495.4,232l-134.8-50.6l-54.7-164C302.4,7,292.7,0,281.6,0c-11.1,0-20.8,7-24.3,17.5l-54.7,164L67.8,232
		c-10,3.7-16.6,13.3-16.6,24c0,10.7,6.6,20.2,16.6,24l134.8,50.6l54.7,164c3.5,10.5,13.2,17.5,24.3,17.5c11.1,0,20.8-7,24.3-17.5
		l54.7-164L495.4,280c10-3.7,16.6-13.3,16.6-24C512,245.3,505.4,235.8,495.4,232z M331.1,286.9c-7.2,2.7-12.9,8.6-15.3,15.9
		l-34.2,102.7l-34.2-102.7c-2.4-7.3-8.1-13.2-15.3-15.9L149.7,256l82.4-30.9c7.2-2.7,12.9-8.6,15.3-15.9l34.2-102.7l34.2,102.7
		c2.4,7.3,8.1,13.2,15.3,15.9l82.4,30.9L331.1,286.9z"/>
	<path d="M51.2,102.4V128c0,14.1,11.5,25.6,25.6,25.6c14.1,0,25.6-11.5,25.6-25.6v-25.6H128c14.1,0,25.6-11.5,25.6-25.6
		c0-14.1-11.5-25.6-25.6-25.6h-25.6V25.6C102.4,11.5,90.9,0,76.8,0C62.7,0,51.2,11.5,51.2,25.6v25.6H25.6C11.5,51.2,0,62.7,0,76.8
		c0,14.1,11.5,25.6,25.6,25.6H51.2z"/>
	<path d="M153.6,409.6H128V384c0-14.1-11.5-25.6-25.6-25.6c-14.1,0-25.6,11.5-25.6,25.6v25.6H51.2c-14.1,0-25.6,11.5-25.6,25.6
		c0,14.1,11.5,25.6,25.6,25.6h25.6v25.6c0,14.1,11.5,25.6,25.6,25.6c14.1,0,25.6-11.5,25.6-25.6v-25.6h25.6
		c14.1,0,25.6-11.5,25.6-25.6C179.2,421.1,167.7,409.6,153.6,409.6z"/>
</g>
</svg>
